{"title":"Andrei Tarkovsky - Nostalghia (1983)","uid":5768002,"size":1748464543,"categoryP":"video","categoryS":"movies","magnet":"?xt=urn:btih:d8ce7bfdb1e0c8ec76bb28a7a1afe3ea3700bf79&amp;dn=Andrei+Tarkovsky+-+Nostalghia+%281983%29&amp;tr=udp%3A%2F%2Ftracker.openbittorrent.com%3A80&amp;tr=udp%3A%2F%2Fopen.demonii.com%3A1337&amp;tr=udp%3A%2F%2Ftracker.coppersurfer.tk%3A6969&amp;tr=udp%3A%2F%2Fexodus.desync.com%3A6969","seeders":1,"leechers":0,"uploader":"mfccorrea","files":5,"time":1281989319,"description":"Nostalghia is Russian director Andrei Tarkovsky's enigmatic work about a writer (Oleg Yankovsky) who, trapped by his fame and an unhappy marriage, seeks out his cultural past in Italy. Here he meets Erland Josephson, a local pariah who declares that the world is coming to an end. The writer finds this prophecy curiously more alluring than the possibility of a dead-end future. Nostalghia won the Grand Prix de Creation and the International Critics Prize at the 1984 Cannes Film Festival. \n\n   General\n      Complete name : Nostalghia.avi\n      Format : AVI\n      Format/Info : Audio Video Interleave\n      File size : 1.63 GiB\n      Duration : 2h 0mn\n      Overall bit rate : 1 935 Kbps\n      Writing application : FairUse Wizard - http://fairusewizard.com\n      Writing library : The best and REALLY easy backup tool\n   Video #0\n      ID : 0\n      Format : MPEG-4 Visual\n      Format profile : AdvancedSimple@L5\n      Format settings, BVOP : Yes\n      Format settings, QPel : No\n      Format settings, GMC : No warppoints\n      Format settings, Matrix : Default (MPEG)\n      Muxing mode : Packed bitstream\n      Codec ID : XVID\n      Codec ID/Hint : XviD\n      Duration : 2h 0mn\n      Bit rate : 1 733 Kbps\n      Width : 624 pixels\n      Height : 384 pixels\n      Display aspect ratio : 1.625\n      Frame rate : 25.000 fps\n      Resolution : 24 bits\n      Colorimetry : 4:2:0\n      Scan type : Progressive\n      Bits/(Pixel*Frame) : 0.289\n      Stream size : 1.46 GiB (90%)\n      Writing library : XviD 1.2.0.dev47 (UTC 2006-11-01)\n   Audio #1\n      ID : 1\n      Format : AC-3\n      Format/Info : Audio Coding 3\n      Codec ID : 2000\n      Duration : 2h 0mn\n      Bit rate mode : Constant\n      Bit rate : 192 Kbps\n      Channel(s) : 2 channels\n      Channel positions : L R\n      Sampling rate : 48.0 KHz\n      Stream size : 165 MiB (10%)\n      Alignment : Split accross interleaves\n      Interleave, duration : 40 ms (1.00 video frame)\n      Interleave, preload duration : 500 ms\n &lt;a href=&quot;\nhttp://www.imdb.com/title/tt0086022/&quot; rel=&quot;nofollow&quot; target=&quot;_NEW&quot;&gt;\nhttp://www.imdb.com/title/tt0086022/&lt;/a&gt;\n\nItalian and Russian audio; English, French, Spanish and Portuguese subtitles\n\nAndrei Tarkovsky - Nostalghia (1983)","torrent":{"xt":"urn:btih:d8ce7bfdb1e0c8ec76bb28a7a1afe3ea3700bf79","amp;dn":"Andrei+Tarkovsky+-+Nostalghia+%281983%29","amp;tr":["udp%3A%2F%2Ftracker.openbittorrent.com%3A80","udp%3A%2F%2Fopen.demonii.com%3A1337","udp%3A%2F%2Ftracker.coppersurfer.tk%3A6969","udp%3A%2F%2Fexodus.desync.com%3A6969"],"infoHash":"d8ce7bfdb1e0c8ec76bb28a7a1afe3ea3700bf79","infoHashBuffer":{"type":"Buffer","data":[216,206,123,253,177,224,200,236,118,187,40,167,161,175,227,234,55,0,191,121]},"announce":[],"urlList":[]}}